<svg xmlns="http://www.w3.org/2000/svg" width="35" height="36" viewBox="0 0 35 36"><defs><style>.cls-1{fill:#e11335;fill-rule:evenodd}</style></defs><path id="Фигура_12" data-name="Фигура 12" class="cls-1" d="M1443.25 1065a11.117 11.117 0 0 1 3.32 1.02 9.67 9.67 0 0 1 3.96 3.75 9.582 9.582 0 0 1-3.44 13.09 9.347 9.347 0 0 1-9.69.11 9.2 9.2 0 0 1-4.82-6.86 9.613 9.613 0 0 1 7.89-11c.2-.03.39-.07.59-.11h2.19zm7.28 9.61a8.39 8.39 0 1 0-8.41 8.33 8.327 8.327 0 0 0 8.41-8.33zm2.47 16.32a5.377 5.377 0 0 1-1.12 2.39 4.906 4.906 0 0 1-7.94-.76 4.86 4.86 0 1 1 8.94-3.62c.04.15.08.3.12.44v1.55zm-4.81-4.29a3.545 3.545 0 1 0-.02 7.09 3.545 3.545 0 1 0 .02-7.09zm-13.27 14.36a7.226 7.226 0 1 1 7.28-7.21 7.216 7.216 0 0 1-7.28 7.21zm-5.99-7.23a5.98 5.98 0 1 0 6.18-5.94 5.943 5.943 0 0 0-6.18 5.94zm-3.66-27.6a6.031 6.031 0 1 1-6.08 6.22 6.033 6.033 0 0 1 6.08-6.22zm-4.77 6.03a4.765 4.765 0 1 0 4.7-4.74 4.715 4.715 0 0 0-4.7 4.74zm1.74 11.96a4.249 4.249 0 0 1 4.28 4.23 4.26 4.26 0 0 1-8.52-.03 4.2 4.2 0 0 1 4.24-4.2zm.06 1.28a2.946 2.946 0 1 0 2.91 3.02 2.913 2.913 0 0 0-2.91-3.02zm5.98-.03a3.026 3.026 0 0 1-3.06-3.02 3.055 3.055 0 0 1 6.11-.01 3.02 3.02 0 0 1-3.05 3.03zm1.75-3.02a1.755 1.755 0 1 0-3.51.01 1.794 1.794 0 0 0 1.75 1.76 1.752 1.752 0 0 0 1.76-1.77zm-5.99 18.61a2.4 2.4 0 0 1-2.43-2.47 2.455 2.455 0 1 1 2.43 2.47zm0-1.29a1.117 1.117 0 0 0 1.17-1.14 1.175 1.175 0 0 0-1.14-1.15 1.137 1.137 0 0 0-1.16 1.19 1.1 1.1 0 0 0 1.13 1.1zm20.53 1.29a2.43 2.43 0 0 1-2.47-2.37 2.455 2.455 0 0 1 4.91-.09 2.41 2.41 0 0 1-2.44 2.46zm1.14-2.43a1.155 1.155 0 1 0-1.15 1.16 1.148 1.148 0 0 0 1.15-1.16zm-25.29-15.56a2.392 2.392 0 0 1-2.42-2.4 2.467 2.467 0 0 1 2.48-2.48 2.509 2.509 0 0 1 2.42 2.45 2.438 2.438 0 0 1-2.48 2.43zm-1.12-2.45a1.129 1.129 0 0 0 1.12 1.19 1.161 1.161 0 1 0-.01-2.32 1.131 1.131 0 0 0-1.11 1.13z" transform="translate(-1418 -1065)"/></svg>