<svg xmlns="http://www.w3.org/2000/svg" width="39" height="28.03" viewBox="0 0 39 28.03"><defs><style>.cls-1{fill:#e11335;fill-rule:evenodd}</style></defs><path id="Фигура_17" data-name="Фигура 17" class="cls-1" d="M872.994 1068.96v-1.95a.892.892 0 0 0-.489-.93.919.919 0 0 0-.993.2l-.016.01-2.74 2.13-1.688 1.3-5.648 4.38a.971.971 0 0 0-.458.85l-.075.03c-.375.13-.762.27-1.137.44a.82.82 0 0 1-.686.01l-.373-.13c-.709-.26-1.441-.53-2.175-.76a3.641 3.641 0 0 0-2.823-.08 1.074 1.074 0 0 1-.761.11 5.83 5.83 0 0 0-1.644-.05c-.714.06-1.436.14-2.134.22-.3.04-.609.07-.914.11a20.1 20.1 0 0 1-2.2.1 1.1 1.1 0 0 0-.523-.9c-2.527-1.95-5.1-3.94-7.577-5.87l-2.379-1.84c-.018-.02-.037-.03-.055-.05a.914.914 0 0 0-1.015-.21.9.9 0 0 0-.484.95v9.19c0 1.8 0 3.67-.009 5.51a1.153 1.153 0 0 0 .717 1.17c.237.11.466.24.709.37.107.06.215.12.323.17l.827.44c.756.41 1.512.81 2.266 1.21a.869.869 0 0 0 1.193-.13 2.121 2.121 0 0 0 .191.15 2.34 2.34 0 0 0 .028 2.09 2.378 2.378 0 0 0 1.793 1.17 2.246 2.246 0 0 0 2.336 2.15.565.565 0 0 1 .193 0 1.032 1.032 0 0 1 .066.19 2.123 2.123 0 0 0 1.088 1.36 2.417 2.417 0 0 0 1.873.12 2.282 2.282 0 0 0 1.426 1.45 2.336 2.336 0 0 0 2.181-.37c.322-.25.648-.51 1-.8.49.33 1 .65 1.485.96l.168.1a2.785 2.785 0 0 0 1.482.47 2.117 2.117 0 0 0 .749-.13 2.431 2.431 0 0 0 1.407-1.58 2.288 2.288 0 0 0 1.886-.25 2.336 2.336 0 0 0 1.029-1.61 2.437 2.437 0 0 0 1.7-.64 2.3 2.3 0 0 0 .7-1.66 2.239 2.239 0 0 0 1.888-2.26.191.191 0 0 1 .1-.16c.265-.23.529-.47.792-.7.183-.16.366-.33.55-.49.12-.1.25-.22.343-.29.068.1.161.25.252.4a.931.931 0 0 0 1.487.42c.441-.23.882-.47 1.323-.7.925-.5 1.881-1.01 2.826-1.5a1.078 1.078 0 0 0 .626-1.05c-.008-4.28-.007-8.64-.007-12.84zm-13.127 15.87c-.3-.22-.609-.44-.915-.65l-2.614-1.86a.833.833 0 0 0-1.244.13.856.856 0 0 0-.169.65.976.976 0 0 0 .418.62c.773.55 1.563 1.11 2.326 1.65l.137.1c.387.27.775.55 1.163.82.6.42 1.214.86 1.819 1.29a.626.626 0 0 1 .245.91.6.6 0 0 1-.388.27.7.7 0 0 1-.552-.15c-1.4-.97-2.809-1.98-4.174-2.95l-.785-.55c-.616-.44-1.1-.45-1.43-.02a.776.776 0 0 0-.166.6 1.25 1.25 0 0 0 .6.81l.2.14c1.341.95 2.729 1.93 4.091 2.89a.661.661 0 0 1 .223.95.576.576 0 0 1-.369.24.76.76 0 0 1-.563-.15c-.992-.7-2-1.41-2.969-2.1-.389-.27-.779-.55-1.169-.83l-.05-.03a.725.725 0 0 0-.112-.08 1.038 1.038 0 0 0-.573-.2.8.8 0 0 0-.63.33.865.865 0 0 0-.182.54.849.849 0 0 0-.219-.06.585.585 0 0 1-.614-.6 2.061 2.061 0 0 0-1.906-1.57 2.3 2.3 0 0 0-1.165-1.9 2.351 2.351 0 0 0-2.132-.03 2.225 2.225 0 0 0-1.372-1.38 2.329 2.329 0 0 0-2.193.37c-.318.24-.646.5-1.06.85-.177-.13-.357-.26-.428-.33.038-.09.16-.29.28-.49l.394-.65c1.132-1.86 2.3-3.79 3.447-5.69.095-.16.119-.15.206-.14a13.72 13.72 0 0 0 3.078-.07c.195-.01.39-.03.585-.05.346-.03.694-.07 1.03-.12l.255-.03a3.209 3.209 0 0 0-1.07.75 1.572 1.572 0 0 0-.469 1.31 1.616 1.616 0 0 0 .869 1.13 4.592 4.592 0 0 0 1.981.48 7.648 7.648 0 0 0 3.9-.65.209.209 0 0 0 .031.02c.91.75 1.82 1.49 2.731 2.24l2.458 2.01c.366.3.732.61 1.1.91.334.27.667.55 1 .82a.621.621 0 0 1 .271.71.581.581 0 0 1-.366.41.73.73 0 0 1-.671-.12c-.706-.49-1.424-1.01-2.119-1.5zm-24.213-16.3c.4.3.781.6 1.158.89.662.51 1.324 1.03 1.986 1.54 1.743 1.36 3.545 2.76 5.324 4.13-1.66 2.71-3.349 5.48-5.021 8.24-1.249-.68-2.376-1.27-3.444-1.83v-12.97zm6.2 17.13c.625-.53 1.143-.95 1.631-1.32a.63.63 0 0 1 .865.08.559.559 0 0 1-.071.86c-.417.37-.862.72-1.292 1.07l-.3.24a.485.485 0 0 1-.346.11h-.024a.57.57 0 0 1-.6-.37.645.645 0 0 1 .133-.67zm2.093 2.13c.657-.55 1.339-1.11 2-1.64l.7-.57a.486.486 0 0 1 .3-.1h.026a.61.61 0 0 1 .652.4.511.511 0 0 1-.169.65c-.984.81-1.874 1.53-2.719 2.19a.6.6 0 0 1-.88-.09.569.569 0 0 1 .086-.84zm2.426 1.85c.58-.5 1.189-.98 1.777-1.45.2-.17.406-.33.608-.49a.48.48 0 0 1 .279-.06h.063a.574.574 0 0 1 .559.42.471.471 0 0 1-.116.58c-.878.74-1.668 1.38-2.414 1.95a.622.622 0 0 1-.812-.18.587.587 0 0 1 .052-.77zm3.485 2.43h-.039a.6.6 0 0 1-.617-.36.539.539 0 0 1 .122-.65c.578-.5 1.1-.92 1.595-1.27a.514.514 0 0 1 .323-.12.663.663 0 0 1 .5.31.524.524 0 0 1-.1.78c-.332.28-.678.56-1.014.83-.139.12-.279.23-.418.34a.475.475 0 0 1-.356.14zm3.561-2.45l.171.12c.232.16.464.33.7.49.449.32.914.65 1.368.97a.593.593 0 0 1 .239.68.549.549 0 0 1-.491.45.777.777 0 0 1-.552-.17c-.294-.17-.589-.37-.874-.55-.212-.14-.43-.28-.65-.42a2.521 2.521 0 0 0 .085-1.57zm10.561-5.41c-1.211-1.07-2.481-2.1-3.711-3.1-.669-.54-1.362-1.1-2.035-1.66-.272-.22-.546-.45-.82-.67-.393-.32-.8-.65-1.19-.98a1.14 1.14 0 0 0-.723-.31 1.09 1.09 0 0 0-.63.23 3.2 3.2 0 0 1-1.651.53 8.135 8.135 0 0 1-2.651-.09c-.032-.01-.1-.02-.15-.04.029-.02.063-.04.09-.06l.082-.06a.245.245 0 0 1 .054-.03 16.714 16.714 0 0 0 2.907-1.5c.205-.13.41-.25.615-.37a.864.864 0 0 1 .522-.21h.046a6.511 6.511 0 0 1 2.176.56c.068.02.137.05.2.07a18.561 18.561 0 0 0 1.915.64 1.643 1.643 0 0 0 1.07-.07c.28-.12.572-.23.854-.34.261-.1.532-.2.8-.31 1.341 2.21 2.7 4.43 3.848 6.31 0 .01 0 .01.007.02-.384.33-.766.67-1.137 1-.168.14-.328.29-.492.44zm7.38-2.91a.23.23 0 0 1-.169.28c-.987.51-2.033 1.06-3.288 1.75-1.445-2.39-2.991-4.93-5.008-8.23a.2.2 0 0 0-.011-.02c2.233-1.72 4.5-3.47 6.683-5.17.6-.46 1.19-.93 1.786-1.39v4.04c-.006 2.86-.006 5.82.003 8.74z" transform="translate(-834 -1065.97)"/></svg>