<svg xmlns="http://www.w3.org/2000/svg" width="35.938" height="29" viewBox="0 0 35.938 29"><defs><style>.cls-1{fill:#e11335;fill-rule:evenodd}</style></defs><path id="Фигура_11" data-name="Фигура 11" class="cls-1" d="M424.99 1092h-17.379c-.608 0-.611 0-.609-.59 0-.99-.116-.91.871-.88.428.01.512-.15.511-.54-.011-5.13 0-10.27-.017-15.4a.827.827 0 0 1 .475-.83c2.964-1.67 5.918-3.37 8.875-5.06.357-.2.405-.17.406.24v4.51c0 .54 0 .54.45.28q4.385-2.49 8.766-5c.428-.25.458-.23.459.26 0 1.53.014 3.06 0 4.59 0 .4.151.47.5.47 1.317-.02 2.634-.01 3.951-.01 1.466-.01 2.931-.03 4.4-.03 1.547 0 3.093.03 4.639.02.328 0 .288.21.288.41v15.52c0 .56 0 .56.552.56.9 0 .818-.1.821.82 0 .66 0 .66-.66.66h-17.3zm-15.129-9.31v.6c0 2.26 0 4.52-.01 6.77a.381.381 0 0 0 .474.46 16.01 16.01 0 0 1 1.7 0 .391.391 0 0 0 .484-.48c-.013-2.41-.006-4.81 0-7.22 0-.53.009-.54.539-.54q5.718 0 11.437-.01a.426.426 0 0 1 .531.52c-.019 2.39-.01 4.78-.009 7.17 0 .55 0 .56.527.56 4.687 0 9.375-.01 14.062 0a.41.41 0 0 0 .5-.51q-.013-6.975 0-13.94c0-.6 0-.6-.609-.6h-12.615c-.546 0-.55 0-.551-.56v-3.43c0-.46 0-.47-.424-.23l-8.841 5.04c-.379.21-.419.19-.419-.25 0-1.52 0-3.03-.005-4.55 0-.47 0-.47-.4-.24-1.963 1.12-3.921 2.25-5.893 3.36a.83.83 0 0 0-.484.83c.014 2.41.006 4.83.006 7.25zm8.889 1.07c-1.414 0-2.829.01-4.243-.01a.418.418 0 0 0-.52.5c.017 1.91.006 3.82.009 5.73 0 .54.007.54.538.54h8.326c.684 0 .707-.02.708-.7v-3.02c0-.83.011-1.66 0-2.49-.01-.51-.063-.55-.568-.55h-4.25zm16.57-20.75c1.455 0 2.91-.01 4.365 0 .492 0 .512.02.512.53 0 1.08.113.97-.935.95-.374-.01-.448.14-.446.47.012 2.38.009 4.76.007 7.14 0 .63 0 .63-.612.63-.987 0-.875.09-.879-.86-.009-2.28 0-4.56 0-6.85 0-.53 0-.53-.546-.52-1 0-1.994.01-2.99-.01a.4.4 0 0 0-.489.48c.012 2.41.007 4.81.006 7.22 0 .54 0 .54-.538.54-1.1-.01-.945.12-.948-.94-.006-2.24 0-4.49 0-6.73 0-.56 0-.57-.551-.57-.934 0-.823.05-.824-.82 0-.66 0-.66.666-.66h4.2zm-11.032 0c1.468 0 2.936.01 4.4-.01a.409.409 0 0 1 .5.49c.017.99.03 1-.948 1a.366.366 0 0 0-.441.45c.02.56 0 1.12.01 1.69a.532.532 0 0 1-.309.55c-.289.15-.569.31-.849.47-.252.15-.331.06-.329-.21 0-.84-.012-1.69.006-2.54a.337.337 0 0 0-.42-.41q-1.615.015-3.232 0c-.347-.01-.431.13-.428.45.012 1.58 0 3.17.013 4.75a.662.662 0 0 1-.41.7c-.231.11-.444.25-.667.38-.348.19-.418.15-.419-.25v-3.3c0-.75-.008-1.5.013-2.26a.378.378 0 0 0-.456-.47c-.952 0-.933-.02-.938-.97a.432.432 0 0 1 .542-.52c1.453.02 2.908.01 4.362.01zm5.533 19.38c-.579 0-1.158-.01-1.737 0a.326.326 0 0 1-.388-.38c.017-1.32-.161-1.09 1.065-1.1.9-.01 1.8 0 2.706-.01a.383.383 0 0 1 .474.46c-.015 1.18.128 1.02-.989 1.03h-1.131zm5.512-1.49q.848.015 1.7 0a.341.341 0 0 1 .42.39c-.028 1.28.158 1.08-1.047 1.1-.9.02-1.805-.01-2.707 0a.394.394 0 0 1-.5-.47c.033-1.19-.131-1 1-1.01.379-.01.757-.01 1.134-.01zm-5.473 2.75c.565 0 1.131.01 1.7 0a.315.315 0 0 1 .382.38c-.016 1.31.134 1.09-1.036 1.1-.915.01-1.831-.01-2.746.01a.381.381 0 0 1-.465-.47c.038-1.19-.153-1 1-1.02.391-.01.781 0 1.172 0zm5.429 1.49c-.566 0-1.132-.01-1.7 0a.328.328 0 0 1-.391-.38c.012-1.33-.152-1.1 1.065-1.11.916-.01 1.832.01 2.748-.01a.358.358 0 0 1 .435.42c-.014 1.24.132 1.07-1.029 1.07-.377.01-.754 0-1.131 0v.01z" transform="translate(-407 -1063)"/></svg>