<svg xmlns="http://www.w3.org/2000/svg" width="28" height="35" viewBox="0 0 28 35"><defs><style>.cls-1{fill:#e11335;fill-rule:evenodd}</style></defs><path id="Фигура_16" data-name="Фигура 16" class="cls-1" d="M1240.58 1098h-8.09c-.51 0-.52-.01-.52-.52 0-1.02.01-2.04-.01-3.06a.4.4 0 0 1 .5-.49c1.43.02 2.86.01 4.3.01.47 0 .51-.03.48-.51a1.809 1.809 0 0 0-.08-1.12 2.732 2.732 0 0 0-1.01-.43 12.561 12.561 0 0 1-1.5-22.82 7.9 7.9 0 0 1 .97-.47c.29-.12.24-.22.06-.4-.41-.4-.81-.83-1.23-1.23-.21-.19-.25-.34-.01-.53a.808.808 0 0 0 .16-.16c.56-.58.6-.43-.02-1.05-.4-.39-.4-.38-.01-.77.43-.43.86-.85 1.28-1.29a.323.323 0 0 1 .55-.01 1.235 1.235 0 0 0 .64.57 1.193 1.193 0 0 0 .66-.55.333.333 0 0 1 .57-.01q4.605 4.62 9.23 9.23c.5.5.99 1.01 1.51 1.5a.32.32 0 0 1 0 .56c-1.09 1.07-2.17 2.14-3.23 3.23-.25.26-.4.22-.63-.01-1.6-1.62-3.22-3.24-4.84-4.85-.64-.64-1.28-1.27-1.91-1.92a.6.6 0 0 0-.73-.17 9.549 9.549 0 0 0-6.82 8.17 9.7 9.7 0 0 0 5.08 9.91 9.925 9.925 0 0 0 11.08-1.18 10.557 10.557 0 0 0 2.08-2.44c.19-.32.15-.37-.21-.37-1.04-.01-2.09-.01-3.14 0-.49 0-.53-.03-.53-.52.01-1.05-.13-.91.89-.91h9.22c.56 0 .56 0 .55.56-.01.95.13.85-.84.86-.75.02-1.5.01-2.25-.01a.6.6 0 0 0-.65.41 12.439 12.439 0 0 1-4.71 5.51 11.289 11.289 0 0 1-3.05 1.41.444.444 0 0 0-.38.52 5.475 5.475 0 0 1 0 .81.375.375 0 0 0 .46.48c1.4-.01 2.81 0 4.22-.01.6 0 .6 0 .6.6q.015 1.47 0 2.94c0 .52-.01.53-.51.53h-8.18zm-2.53-33.03a.337.337 0 0 0-.28.16c-.31.3-.62.62-.93.93-.64.63-.64.63-.02 1.26q3.135 3.135 6.26 6.27c.15.15.23.15.37.01.47-.48.94-.96 1.43-1.43.18-.17.13-.27-.03-.43-.83-.8-1.63-1.61-2.44-2.42l-4.17-4.2c-.07-.06-.14-.11-.19-.15zm2.59 30.39h-6.55c-.75 0-.67-.08-.7.72-.02.4.12.5.5.5 4.4-.01 8.8 0 13.2 0 .76 0 .74 0 .77-.75.01-.38-.12-.48-.49-.47-2.24.01-4.49 0-6.73 0zm6.6-21.16c-.03-.04-.04-.08-.06-.11-.33-.34-.67-.68-1-1.02-.11-.1-.19-.02-.27.05-.5.5-1 1-1.51 1.5a.182.182 0 0 0 0 .3c.3.28.6.57.88.86a.235.235 0 0 0 .41-.01c.46-.47.93-.93 1.4-1.4.05-.05.1-.11.15-.17z" transform="translate(-1228 -1063)"/></svg>