<svg xmlns="http://www.w3.org/2000/svg" width="37" height="37.03" viewBox="0 0 37 37.03"><defs><style>.cls-1{fill:#fff;fill-rule:evenodd}</style></defs><path id="Фигура_15" data-name="Фигура 15" class="cls-1" d="M1035.57 1088.35a8.851 8.851 0 0 1 .78-3.49 14.444 14.444 0 0 1 .96-2.03c.17-.28.12-.39-.2-.48a15.334 15.334 0 0 1-3.89-1.65 6.466 6.466 0 0 1-1.29-1.04 2.977 2.977 0 0 1 .29-4.57 12.074 12.074 0 0 1 4.48-2.29c.8-.26.78-.23.4-1a11.576 11.576 0 0 1-1.53-5.03 3.033 3.033 0 0 1 3.65-3.17 13.615 13.615 0 0 1 4.84 1.68c.47.25.47.26.63-.27a12.732 12.732 0 0 1 2.32-4.69 3.534 3.534 0 0 1 1.93-1.23 3.044 3.044 0 0 1 3.01 1.19 11.862 11.862 0 0 1 2.26 4.41 3.58 3.58 0 0 1 .11.35c.15.48.14.47.57.25a14.162 14.162 0 0 1 4.84-1.68c2.11-.23 3.72.94 3.71 3.1a8.926 8.926 0 0 1-.71 3.27 12.737 12.737 0 0 1-1.04 2.21c-.19.3-.1.4.2.49a15.115 15.115 0 0 1 3.82 1.61 5.68 5.68 0 0 1 1.36 1.08 3 3 0 0 1-.34 4.63 11.443 11.443 0 0 1-3.21 1.81c-.49.19-1 .35-1.5.5-.52.17-.53.16-.26.66a15.221 15.221 0 0 1 1.52 3.85 5.517 5.517 0 0 1 .11 2.1c-.32 2.02-2.03 2.68-3.66 2.5a14.055 14.055 0 0 1-4.83-1.69c-.43-.23-.43-.23-.58.24a13.122 13.122 0 0 1-2.2 4.58 3.564 3.564 0 0 1-2.06 1.38 3.065 3.065 0 0 1-3.04-1.22 12.3 12.3 0 0 1-2.27-4.49 2.172 2.172 0 0 1-.07-.24c-.15-.48-.14-.47-.61-.24a14 14 0 0 1-4.76 1.67c-2.1.25-3.83-.9-3.74-3.06zm18.83-10.83h-.01c0-.55-.01-1.11 0-1.66a.829.829 0 0 0-.25-.63c-.76-.81-1.54-1.59-2.35-2.34a.877.877 0 0 0-.55-.25c-1.06-.09-2.11-.04-3.16-.03a1.1 1.1 0 0 0-.82.24c-.82.74-1.6 1.53-2.36 2.33a1 1 0 0 0-.29.75c.01 1.09.01 2.18 0 3.28a.816.816 0 0 0 .25.59c.75.79 1.52 1.57 2.32 2.32a.978.978 0 0 0 .63.27c1.08.07 2.16.04 3.24.02a1.237 1.237 0 0 0 .88-.39c.57-.59 1.14-1.18 1.75-1.72a1.9 1.9 0 0 0 .73-1.74 7.207 7.207 0 0 1-.01-1.04zm12.07.01a1.433 1.433 0 0 0-.27-.85 4 4 0 0 0-1.14-1.03 15.792 15.792 0 0 0-4.09-1.7.4.4 0 0 0-.49.27 33.454 33.454 0 0 1-2.14 3.01.383.383 0 0 0-.02.57 31.53 31.53 0 0 1 2.15 3 .475.475 0 0 0 .62.23 17.273 17.273 0 0 0 3.19-1.2 6.406 6.406 0 0 0 1.45-.96 1.78 1.78 0 0 0 .74-1.34zm-27.67 12.4c.2-.02.41-.03.62-.06a13.51 13.51 0 0 0 4.49-1.77.331.331 0 0 0 .16-.44c-.24-1.22-.47-2.44-.6-3.68a.446.446 0 0 0-.45-.44c-1.07-.12-2.14-.29-3.19-.51-.8-.17-.81-.18-1.21.54a11.679 11.679 0 0 0-1.54 4.26c-.16 1.33.38 2.14 1.72 2.1zm-6.27-12.29a1.372 1.372 0 0 0 .3.74 3.55 3.55 0 0 0 1.01.92 15.178 15.178 0 0 0 4.19 1.77.386.386 0 0 0 .47-.23 35.137 35.137 0 0 1 2.2-3.08.334.334 0 0 0-.01-.5 30.013 30.013 0 0 1-2.19-3.07.409.409 0 0 0-.55-.2 16.309 16.309 0 0 0-3.19 1.19 5.915 5.915 0 0 0-1.49.98 1.82 1.82 0 0 0-.74 1.48zm27.66 12.28c1.46.02 1.77-.77 1.75-1.92a4.083 4.083 0 0 0-.11-.77 15.064 15.064 0 0 0-1.7-4.13.4.4 0 0 0-.53-.16 34.517 34.517 0 0 1-3.64.6.409.409 0 0 0-.43.4 34.263 34.263 0 0 1-.62 3.76.343.343 0 0 0 .21.43c.62.3 1.22.65 1.85.93a8.61 8.61 0 0 0 3.22.86zm-10.68 4.57a1.922 1.922 0 0 0 1.33-.75 12.406 12.406 0 0 0 2.22-4.82.326.326 0 0 0-.2-.4 36.587 36.587 0 0 1-3.08-2.19.375.375 0 0 0-.57.01 30.943 30.943 0 0 1-3.04 2.16.4.4 0 0 0-.21.54 23.244 23.244 0 0 0 .81 2.35 8.14 8.14 0 0 0 1.48 2.44 1.95 1.95 0 0 0 1.26.66zm-.05-33.95a1.971 1.971 0 0 0-1.35.81 12.5 12.5 0 0 0-2.17 4.76.292.292 0 0 0 .16.37c1.09.69 2.14 1.44 3.15 2.23a.334.334 0 0 0 .5 0 33.685 33.685 0 0 1 3.11-2.21.384.384 0 0 0 .18-.52c-.12-.37-.21-.74-.34-1.11a9.982 9.982 0 0 0-1.98-3.7 1.811 1.811 0 0 0-1.26-.63zm12.43 6.35c0-.14.01-.27 0-.41a1.3 1.3 0 0 0-1.25-1.35 3.633 3.633 0 0 0-1.04.02 13.625 13.625 0 0 0-4.5 1.76.324.324 0 0 0-.18.4c.25 1.26.49 2.53.63 3.81a.347.347 0 0 0 .37.35c1.24.15 2.47.35 3.68.62a.454.454 0 0 0 .57-.27 16.406 16.406 0 0 0 1.15-2.39 6.533 6.533 0 0 0 .57-2.54zm-23.05-1.79a2.8 2.8 0 0 0-.82.1 1.2 1.2 0 0 0-.88 1.01 4.109 4.109 0 0 0 .05 1.6 15.632 15.632 0 0 0 1.66 4.06.414.414 0 0 0 .55.22 31.772 31.772 0 0 1 3.64-.61.394.394 0 0 0 .42-.4 36.863 36.863 0 0 1 .63-3.76.335.335 0 0 0-.21-.43 20.58 20.58 0 0 0-2.16-1.06 8.432 8.432 0 0 0-2.88-.73zm17.32 7.89a.3.3 0 0 0-.39.38 2.642 2.642 0 0 0 .84 2.34 1.638 1.638 0 0 1 .29.35c.16.22.29.19.45-.01.57-.73 1.1-1.49 1.62-2.25.13-.19.12-.31-.12-.35-.9-.15-1.8-.3-2.69-.46zm-12.95 8.51a2.414 2.414 0 0 0-.9-2.27 1.329 1.329 0 0 1-.21-.26c-.15-.21-.28-.22-.44 0-.54.75-1.08 1.5-1.63 2.25-.16.22-.1.31.15.35.88.15 1.77.3 2.65.44.31.05.45-.08.38-.51zm.02-8.1c.06-.33-.09-.44-.4-.39-.87.14-1.74.29-2.61.43-.24.04-.35.13-.18.38.55.75 1.09 1.5 1.63 2.25.14.19.26.19.42 0 .29-.35.59-.69.89-1.03a.583.583 0 0 0 .17-.41 6.308 6.308 0 0 1 .08-1.23zm12.54 8.2c-.06.35.1.46.42.41.87-.15 1.74-.29 2.61-.43.23-.04.32-.11.17-.35-.51-.79-1.08-1.54-1.65-2.29-.13-.17-.24-.18-.39 0-.31.37-.63.73-.95 1.09a.533.533 0 0 0-.13.34 6.308 6.308 0 0 1-.08 1.23zm-2.57-10.4a5.447 5.447 0 0 1 .58.05c.2.03.27-.04.24-.25-.13-.93-.26-1.86-.45-2.78-.05-.21-.1-.32-.32-.18-.79.53-1.57 1.09-2.32 1.67-.13.11-.18.22-.03.35.7.6 1.31 1.4 2.3 1.14zm.81 12.92c.05-.28.01-.37-.19-.35-.39.03-.78.04-1.16.08a1.132 1.132 0 0 0-.67.16c-.36.33-.73.64-1.1.95-.13.12-.16.21 0 .33.76.57 1.52 1.14 2.33 1.66.2.13.29.1.35-.16.2-.92.32-1.85.44-2.67zm-8.34-.33v.02c-.15-.01-.3-.01-.45-.03-.21-.02-.28.05-.25.26.15.91.27 1.83.45 2.73.07.33.19.32.41.16.72-.52 1.44-1.04 2.16-1.55.23-.17.27-.31.01-.5-.31-.25-.6-.53-.9-.79a.68.68 0 0 0-.4-.21c-.34-.02-.68-.06-1.03-.09zm.13-12.58a2.2 2.2 0 0 0 1.22-.22c.36-.27.69-.59 1.03-.89.17-.13.2-.26.02-.39-.75-.54-1.51-1.08-2.26-1.62-.21-.15-.34-.13-.38.16-.12.75-.26 1.5-.38 2.25s-.12.74.75.71zm5.15 6.31a1.445 1.445 0 0 1-1.44 1.46 1.46 1.46 0 0 1-1.47-1.52 1.479 1.479 0 0 1 1.45-1.42 1.454 1.454 0 0 1 1.46 1.48z" transform="translate(-1031 -1059)"/></svg>